<svg id="Layer_3" enable-background="new 0 0 64 64" height="512" viewBox="0 0 64 64" width="512" xmlns="http://www.w3.org/2000/svg"><g><path d="m40 54h12c2.209 0 4-1.791 4-4v-26c0-1.105.895-2 2-2 2.209 0 4-1.791 4-4v-6.603c0-2.108-1.106-4.061-2.913-5.145-4.637-2.782-9.944-4.252-15.352-4.252h-7.471c-5.407 0-10.714 1.47-15.351 4.252-1.421.853-2.409 2.243-2.766 3.823.704-.05 1.41-.075 2.118-.075h7.471c5.408 0 10.714 1.47 15.352 4.252 1.806 1.085 2.912 3.038 2.912 5.145v6.603c0 2.209-1.791 4-4 4-1.105 0-2 .895-2 2z" fill="#c18e59"/><path d="m40 50h11c.552 0 1-.448 1-1v-26c0-2.761 2.239-5 5-5 .552 0 1-.448 1-1v-4.679c0-1.435-.769-2.761-2.015-3.473-3.267-1.866-6.964-2.848-10.726-2.848h-10.518c-3.762 0-7.459.982-10.726 2.848-.51.292-.94.686-1.271 1.148v.003h4.99c5.408 0 10.714 1.47 15.352 4.252 1.808 1.086 2.914 3.039 2.914 5.146v6.603c0 2.209-1.791 4-4 4-1.105 0-2 .895-2 2z" fill="#fadfb2"/><path d="m42 30c-1.105 0-2 .895-2 2v26c0 2.209-1.791 4-4 4h-24c-2.209 0-4-1.791-4-4v-26c0-1.105-.895-2-2-2-2.209 0-4-1.791-4-4v-6.603c0-2.108 1.106-4.061 2.913-5.145 4.637-2.782 9.944-4.252 15.352-4.252h7.471c5.408 0 10.714 1.47 15.352 4.252 1.806 1.085 2.912 3.038 2.912 5.145v6.603c0 2.209-1.791 4-4 4z" fill="#f5cf88"/><path d="m18.741 14h10.518c3.762 0 7.459.982 10.726 2.848 1.246.712 2.015 2.038 2.015 3.473v4.679c0 .552-.448 1-1 1-2.761 0-5 2.239-5 5v26c0 .552-.448 1-1 1h-22c-.552 0-1-.448-1-1v-26c0-2.761-2.239-5-5-5-.552 0-1-.448-1-1v-4.679c0-1.435.769-2.761 2.015-3.473 3.267-1.866 6.964-2.848 10.726-2.848z" fill="#fadfb2"/><g><path d="m14.999 21h1.999v2h-1.999z" fill="#f5cf88"/></g><g><path d="m20.999 27h1.999v2h-1.999z" fill="#f5cf88"/></g><g><path d="m27.999 22h1.999v2h-1.999z" fill="#f5cf88"/></g><g><path d="m27.999 41.999h1.999v1.999h-1.999z" fill="#f5cf88"/></g><g><path d="m16.999 35.999h1.999v1.999h-1.999z" fill="#f5cf88"/></g><g><path d="m18.999 49.999h1.999v1.999h-1.999z" fill="#f5cf88"/></g><g><path d="m27.999 51.999h1.999v1.999h-1.999z" fill="#f5cf88"/></g><g><path d="m27.999 32h1.999v1.999h-1.999z" fill="#f5cf88"/></g><g><path d="m34.999 20h1.999v2h-1.999z" fill="#f5cf88"/></g><g><path d="m46 12h1.999v2h-1.999z" fill="#f5cf88"/></g><g><path d="m47 31h1.999v2h-1.999z" fill="#f5cf88"/></g><g><path d="m43 39.999h1.999v1.999h-1.999z" fill="#f5cf88"/></g><g><path d="m53 12h1.999v2h-1.999z" fill="#f5cf88"/></g></g></svg>