<svg id="Layer_3" enable-background="new 0 0 64 64" height="512" viewBox="0 0 64 64" width="512" xmlns="http://www.w3.org/2000/svg"><g><path d="m13 38 6.023 1.643c3.303.901 6.712 1.357 10.136 1.357 8.335 0 16.446-2.703 23.114-7.705l1.727-1.295-.898-.673c-7.206-5.405-15.971-8.327-24.98-8.327-2.742 0-5.476.271-8.165.808l-5.957 1.192" fill="#c1c8d1"/><g fill="#758190"><path d="m49.16 35.4 1.84 4.6h-2.377c-1.068 0-2.121.249-3.076.726l-.979.49c-1.004.502-1.768 1.383-2.123 2.448-.266.798-1.012 1.336-1.853 1.336-.386 0-.763-.114-1.084-.328l-5.88-3.932c5.498-.642 10.797-2.462 15.532-5.34z"/><path d="m46 27.034c-5.555-2.641-11.658-4.034-17.878-4.034-.374 0-.748.005-1.122.015v-.015l6-6 1.422.948c1.047.698 2.183 1.253 3.377 1.651l.29.097c2.554.852 5.299.957 7.911.304z"/><path d="m27 41c-.658 1.315-1 2.766-1 4.236v1.764l-.785-.392c-3.368-1.684-6.192-4.283-8.15-7.499l1.957.534c2.609.712 5.284 1.146 7.981 1.297z"/><path d="m13 38-8.966-4.075-.034.075-1.586 1.586c-.265.265-.414.625-.414 1 0 .781.633 1.414 1.414 1.414z"/></g><path d="m54 32 .263.919c1.087 3.805 3.982 6.829 7.737 8.081l-3-9 3-9c-3.755 1.252-6.65 4.276-7.737 8.081z" fill="#8892a0"/><path d="m2.802 30.519 6.928-4.157c1.485-.891 3.185-1.362 4.917-1.362 2.17 0 4.276.739 5.971 2.094l.543.435c1.162.93 1.839 2.337 1.839 3.826 0 2.164-1.419 4.071-3.492 4.693l-6.508 1.952-10.031-4.56c-.59-.268-.969-.856-.969-1.504 0-.581.305-1.119.802-1.417z" fill="#a8b0bc"/><g><path d="m12.999 30.999c-1.104 0-2-.897-2-2s.896-2 2-2c1.103 0 1.999.897 1.999 2s-.896 2-1.999 2z" fill="#606060"/></g><path d="m14.358 27.542c-.357-.334-.833-.542-1.359-.542-1.104 0-2 .897-2 2 0 .486.181.927.471 1.274 1.421-.262 2.548-1.341 2.888-2.732z" fill="#c1c8d1"/><path d="m38.089 19.696-.29-.097c-1.194-.398-2.329-.953-3.377-1.651l-1.422-.948-6 6v.015c.374-.01.748-.015 1.122-.015 4.342 0 8.624.694 12.706 2.003 1.495-1.217 2.648-2.829 3.322-4.673-2.035.229-4.104.019-6.061-.634z" fill="#8892a0"/><path d="m33.628 40.74 5.88 3.932c.321.214.698.328 1.084.328.841 0 1.588-.538 1.854-1.336.355-1.065 1.119-1.946 2.123-2.448l.979-.49c.487-.244 1-.426 1.528-.548.579-1.254.911-2.644.921-4.113-4.435 2.487-9.315 4.085-14.369 4.675z" fill="#8892a0"/><path d="m19.023 39.643-1.957-.534c1.33 2.185 3.068 4.076 5.097 5.598 1.648-.837 2.913-2.219 3.491-3.879-2.239-.204-4.458-.593-6.631-1.185z" fill="#8892a0"/><path d="m8.82 36.1-4.785-2.175-.035.075-1.586 1.586c-.265.265-.414.625-.414 1 0 .781.633 1.414 1.414 1.414h3.153c.913-.419 1.693-1.077 2.253-1.9z" fill="#8892a0"/><g><path d="m26.706 30.707-1.413-1.416.293-.292c.266-.267.414-.622.414-.999 0-.378-.147-.733-.415-1l-.293-.293 1.415-1.415.293.293c.645.645 1 1.502 1 2.415s-.355 1.77-1 2.415z" fill="#8892a0"/></g><g><path d="m29.706 34.707-1.413-1.416.293-.292c.266-.267.414-.622.414-.999 0-.378-.147-.733-.415-1l-.293-.293 1.415-1.415.293.293c.645.645 1 1.502 1 2.415s-.355 1.77-1 2.415z" fill="#8892a0"/></g><g><path d="m35.707 34.707-1.415-1.415.293-.292c.268-.268.415-.623.415-1 0-.378-.147-.733-.415-1l-.293-.294 1.416-1.413.292.293c.645.645 1 1.501 1 2.414 0 .912-.355 1.769-1 2.415z" fill="#8892a0"/></g><g><path d="m43.707 34.707-1.415-1.415.293-.292c.268-.268.415-.623.415-1 0-.378-.147-.733-.415-1l-.293-.294 1.416-1.413.292.293c.645.645 1 1.501 1 2.414 0 .912-.355 1.769-1 2.415z" fill="#8892a0"/></g><g><path d="m26.706 38.707-1.413-1.416.293-.292c.266-.267.414-.622.414-.999 0-.378-.147-.733-.415-1l-.293-.293 1.415-1.415.293.293c.645.645 1 1.502 1 2.415s-.355 1.77-1 2.415z" fill="#8892a0"/></g><g><path d="m32.707 30.707-1.415-1.415.293-.292c.268-.268.415-.623.415-1 0-.378-.147-.733-.415-1l-.293-.294 1.416-1.413.292.293c.645.645 1 1.501 1 2.414 0 .912-.355 1.769-1 2.415z" fill="#8892a0"/></g><g><path d="m39.707 31.707-1.415-1.415.293-.292c.268-.268.415-.623.415-1 0-.378-.147-.733-.415-1l-.293-.294 1.416-1.413.292.293c.645.645 1 1.501 1 2.414 0 .912-.355 1.769-1 2.415z" fill="#8892a0"/></g><g><path d="m39.707 37.707-1.415-1.415.293-.292c.268-.268.415-.623.415-1 0-.378-.147-.733-.415-1l-.293-.294 1.416-1.413.292.293c.645.645 1 1.501 1 2.414 0 .912-.355 1.769-1 2.415z" fill="#8892a0"/></g><g><path d="m32.707 38.707-1.415-1.415.293-.292c.268-.268.415-.623.415-1 0-.378-.147-.733-.415-1l-.293-.294 1.416-1.413.292.293c.645.645 1 1.501 1 2.414 0 .912-.355 1.769-1 2.415z" fill="#8892a0"/></g></g></svg>